<svg xmlns="http://www.w3.org/2000/svg" viewBox="0 0 200 200" fill="none">
  <!-- Stack of books -->
  
  <!-- Bottom book (red) -->
  <rect x="60" y="130" width="80" height="18" rx="2" fill="#E53E3E"/>
  <rect x="60" y="130" width="80" height="3" rx="1" fill="#C53030"/>
  <rect x="138" y="130" width="4" height="18" fill="#9B2C2C"/>
  
  <!-- Middle book (blue) -->
  <rect x="50" y="108" width="90" height="22" rx="2" fill="#3B82F6"/>
  <rect x="50" y="108" width="90" height="3" rx="1" fill="#2563EB"/>
  <rect x="138" y="108" width="4" height="22" fill="#1E40AF"/>
  
  <!-- Top book (beige/tan) -->
  <rect x="70" y="88" width="70" height="20" rx="2" fill="#D4A373"/>
  <rect x="70" y="88" width="70" height="3" rx="1" fill="#B8956A"/>
  <rect x="138" y="88" width="4" height="20" fill="#9A7B5C"/>
  
  <!-- Pencil holder (light blue) -->
  <rect x="45" y="95" width="22" height="35" rx="3" fill="#93C5FD"/>
  <rect x="45" y="95" width="22" height="4" rx="2" fill="#60A5FA"/>
  
  <!-- Pencils -->
  <!-- Yellow pencil -->
  <rect x="48" y="80" width="4" height="20" fill="#FCD34D"/>
  <polygon points="48,80 50,75 52,80" fill="#F59E0B"/>
  
  <!-- Orange pencil -->
  <rect x="53" y="85" width="4" height="15" fill="#FB923C"/>
  <polygon points="53,85 55,80 57,85" fill="#EA580C"/>
  
  <!-- Red pencil -->
  <rect x="58" y="82" width="4" height="18" fill="#F87171"/>
  <polygon points="58,82 60,77 62,82" fill="#DC2626"/>
  
  <!-- Apple on top -->
  <ellipse cx="105" cy="75" rx="14" ry="13" fill="#DC2626"/>
  <ellipse cx="108" cy="72" rx="4" ry="3.5" fill="#EF4444" opacity="0.6"/>
  
  <!-- Apple stem -->
  <rect x="104" y="62" width="2.5" height="8" fill="#78350F" rx="1"/>
  
  <!-- Apple leaf -->
  <ellipse cx="109" cy="65" rx="5" ry="3" fill="#22C55E" transform="rotate(20 109 65)"/>
</svg>
