<svg xmlns="http://www.w3.org/2000/svg" viewBox="0 0 200 200" fill="none">
  <!-- Background -->
  <rect width="200" height="200" fill="#F5F3FF"/>
  
  <defs>
    <radialGradient id="bg2">
      <stop offset="0%" stop-color="#8B5CF6" stop-opacity="0.15"/>
      <stop offset="100%" stop-color="#8B5CF6" stop-opacity="0.03"/>
    </radialGradient>
    <linearGradient id="heartGrad" x1="0%" y1="0%" x2="100%" y2="100%">
      <stop offset="0%" stop-color="#C4B5FD"/>
      <stop offset="100%" stop-color="#8B5CF6"/>
    </linearGradient>
  </defs>
  
  <circle cx="100" cy="100" r="85" fill="url(#bg2)"/>
  
  <!-- Trinity symbol - Three interlocking circles -->
  <circle cx="100" cy="75" r="28" fill="none" stroke="#8B5CF6" stroke-width="3" opacity="0.7"/>
  <circle cx="85" cy="100" r="28" fill="none" stroke="#A78BFA" stroke-width="3" opacity="0.7"/>
  <circle cx="115" cy="100" r="28" fill="none" stroke="#C4B5FD" stroke-width="3" opacity="0.7"/>
  
  <!-- Center triangle (Trinity) -->
  <path d="M 100 85 L 90 100 L 110 100 Z" fill="#8B5CF6" opacity="0.4"/>
  
  <!-- Heart symbol for Love/Agape -->
  <g transform="translate(100, 140)">
    <path d="M 0 -5 C -15 -20, -25 -10, -25 5 C -25 20, 0 35, 0 35 C 0 35, 25 20, 25 5 C 25 -10, 15 -20, 0 -5 Z" 
          fill="url(#heartGrad)" opacity="0.8"/>
    <path d="M 0 -5 C -15 -20, -25 -10, -25 5 C -25 20, 0 35, 0 35" 
          fill="none" stroke="#FFFFFF" stroke-width="2" opacity="0.4"/>
  </g>
  
  <!-- Decorative stars -->
  <circle cx="50" cy="50" r="3" fill="#8B5CF6" opacity="0.3"/>
  <circle cx="150" cy="50" r="3" fill="#8B5CF6" opacity="0.3"/>
  <circle cx="50" cy="150" r="3" fill="#8B5CF6" opacity="0.3"/>
  <circle cx="150" cy="150" r="3" fill="#8B5CF6" opacity="0.3"/>
</svg>

