<svg xmlns="http://www.w3.org/2000/svg" viewBox="0 0 200 200" fill="none">
  <!-- Background -->
  <rect width="200" height="200" fill="#F5F3FF"/>
  
  <defs>
    <radialGradient id="bg1">
      <stop offset="0%" stop-color="#8B5CF6" stop-opacity="0.15"/>
      <stop offset="100%" stop-color="#8B5CF6" stop-opacity="0.03"/>
    </radialGradient>
  </defs>
  
  <circle cx="100" cy="100" r="85" fill="url(#bg1)"/>
  
  <!-- Ancient scroll representing origins -->
  <g transform="translate(60, 60)">
    <!-- Scroll -->
    <rect x="0" y="10" width="80" height="60" rx="4" fill="#DDD6FE" stroke="#8B5CF6" stroke-width="2"/>
    <rect x="0" y="10" width="80" height="60" rx="4" fill="#EDE9FE" opacity="0.6"/>
    
    <!-- Scroll edges -->
    <ellipse cx="5" cy="40" rx="5" ry="30" fill="#C4B5FD"/>
    <ellipse cx="75" cy="40" rx="5" ry="30" fill="#C4B5FD"/>
    
    <!-- Ancient text lines -->
    <line x1="15" y1="25" x2="65" y2="25" stroke="#8B5CF6" stroke-width="2" opacity="0.4"/>
    <line x1="15" y1="35" x2="60" y2="35" stroke="#8B5CF6" stroke-width="2" opacity="0.4"/>
    <line x1="15" y1="45" x2="65" y2="45" stroke="#8B5CF6" stroke-width="2" opacity="0.4"/>
    <line x1="15" y1="55" x2="55" y2="55" stroke="#8B5CF6" stroke-width="2" opacity="0.4"/>
    
    <!-- Cross symbol on scroll -->
    <g transform="translate(30, 20)" opacity="0.5">
      <rect x="0" y="5" width="3" height="12" rx="1" fill="#8B5CF6"/>
      <rect x="-3.5" y="8.5" width="10" height="3" rx="1" fill="#8B5CF6"/>
    </g>
  </g>
  
  <!-- Timeline decoration -->
  <circle cx="40" cy="160" r="5" fill="#8B5CF6" opacity="0.3"/>
  <line x1="40" y1="160" x2="160" y2="160" stroke="#8B5CF6" stroke-width="2" opacity="0.2" stroke-dasharray="5 5"/>
  <circle cx="100" cy="160" r="5" fill="#8B5CF6" opacity="0.4"/>
  <circle cx="160" cy="160" r="5" fill="#8B5CF6" opacity="0.5"/>
</svg>

