<svg xmlns="http://www.w3.org/2000/svg" viewBox="0 0 200 200" fill="none">
  <!-- Background -->
  <rect width="200" height="200" fill="#FEF3C7"/>
  
  <defs>
    <radialGradient id="hinduPracticeBg">
      <stop offset="0%" stop-color="#F59E0B" stop-opacity="0.15"/>
      <stop offset="100%" stop-color="#F59E0B" stop-opacity="0.03"/>
    </radialGradient>
  </defs>
  
  <circle cx="100" cy="100" r="85" fill="url(#hinduPracticeBg)"/>
  
  <!-- Diya lamp (oil lamp for puja) -->
  <g transform="translate(100, 100)">
    <!-- Flame -->
    <g transform="translate(0, -25)">
      <ellipse cx="0" cy="0" rx="8" ry="14" fill="#FCD34D" opacity="0.9"/>
      <ellipse cx="0" cy="0" rx="5" ry="10" fill="#FBBF24" opacity="0.9"/>
      <ellipse cx="0" cy="0" rx="3" ry="6" fill="#F59E0B"/>
      <!-- Flame tip -->
      <path d="M 0 -14 Q -2 -17, 0 -20 Q 2 -17, 0 -14 Z" fill="#FEF3C7"/>
    </g>
    
    <!-- Lamp bowl -->
    <ellipse cx="0" cy="0" rx="25" ry="8" fill="#FBBF24" opacity="0.9"/>
    <path d="M -25 0 Q -25 8, -20 12 L 20 12 Q 25 8, 25 0 Z" fill="#F59E0B" opacity="0.8"/>
    
    <!-- Decorative patterns on lamp -->
    <circle cx="-15" cy="2" r="2" fill="#92400E" opacity="0.3"/>
    <circle cx="0" cy="2" r="2" fill="#92400E" opacity="0.3"/>
    <circle cx="15" cy="2" r="2" fill="#92400E" opacity="0.3"/>
    
    <!-- Base -->
    <ellipse cx="0" cy="12" rx="22" ry="4" fill="#D97706" opacity="0.7"/>
  </g>
  
  <!-- Incense sticks -->
  <g transform="translate(50, 80)" opacity="0.6">
    <line x1="0" y1="20" x2="0" y2="-10" stroke="#92400E" stroke-width="2"/>
    <path d="M 0 -10 Q -2 -15, 0 -20 Q 2 -15, 0 -10 Z" fill="#D1D5DB" opacity="0.8"/>
    
    <line x1="7" y1="20" x2="7" y2="-8" stroke="#92400E" stroke-width="2"/>
    <path d="M 7 -8 Q 5 -13, 7 -18 Q 9 -13, 7 -8 Z" fill="#D1D5DB" opacity="0.8"/>
    
    <line x1="-7" y1="20" x2="-7" y2="-12" stroke="#92400E" stroke-width="2"/>
    <path d="M -7 -12 Q -9 -17, -7 -22 Q -5 -17, -7 -12 Z" fill="#D1D5DB" opacity="0.8"/>
  </g>
  
  <!-- Flowers (offering) -->
  <g transform="translate(150, 85)" opacity="0.7">
    <circle cx="0" cy="0" r="6" fill="#EC4899"/>
    <circle cx="-4" cy="-3" r="4" fill="#F472B6"/>
    <circle cx="4" cy="-3" r="4" fill="#F472B6"/>
    <circle cx="0" cy="-6" r="4" fill="#FBBF24"/>
  </g>
</svg>

