<svg xmlns="http://www.w3.org/2000/svg" viewBox="0 0 200 150" fill="none">
  <defs>
    <linearGradient id="islamGrad" x1="0%" y1="0%" x2="100%" y2="100%">
      <stop offset="0%" style="stop-color:#0EA5E9;stop-opacity:0.2" />
      <stop offset="100%" style="stop-color:#0EA5E9;stop-opacity:0.05" />
    </linearGradient>
  </defs>
  <rect width="200" height="150" fill="url(#islamGrad)" rx="12"/>
  <!-- Mosque dome -->
  <ellipse cx="100" cy="55" rx="35" ry="20" fill="#0EA5E9" opacity="0.8"/>
  <rect x="75" y="55" width="50" height="40" fill="#0EA5E9" opacity="0.9"/>
  <!-- Minaret -->
  <rect x="45" y="40" width="12" height="55" fill="#0EA5E9" opacity="0.7"/>
  <circle cx="51" cy="37" r="5" fill="#0EA5E9"/>
  <rect x="143" y="40" width="12" height="55" fill="#0EA5E9" opacity="0.7"/>
  <circle cx="149" cy="37" r="5" fill="#0EA5E9"/>
  <!-- Crescent and star -->
  <path d="M 100 25 Q 96 15 100 5 Q 108 8 110 15 Q 108 22 100 25 Z" fill="#F59E0B"/>
  <path d="M 113 12 L 114 15 L 117 15 L 115 17 L 116 20 L 113 18 L 110 20 L 111 17 L 109 15 L 112 15 Z" fill="#F59E0B"/>
  <!-- Title area -->
  <rect x="30" y="110" width="140" height="30" rx="8" fill="#0EA5E9" opacity="0.15"/>
  <text x="100" y="130" font-size="18" text-anchor="middle" fill="#0EA5E9" font-weight="700">Islam</text>
</svg>
