<svg xmlns="http://www.w3.org/2000/svg" viewBox="0 0 120 120" fill="none">
  <!-- Background circle -->
  <circle cx="60" cy="60" r="58" fill="#EC4899" opacity="0.1"/>
  
  <!-- Dharma Wheel (Dharmachakra) -->
  <!-- Outer rim -->
  <circle cx="60" cy="60" r="28" stroke="#EC4899" stroke-width="3" fill="none" opacity="0.9"/>
  
  <!-- Inner circle -->
  <circle cx="60" cy="60" r="8" fill="#EC4899" opacity="0.9"/>
  
  <!-- 8 spokes of the wheel -->
  <line x1="60" y1="32" x2="60" y2="50" stroke="#EC4899" stroke-width="2.5" opacity="0.9"/>
  <line x1="60" y1="70" x2="60" y2="88" stroke="#EC4899" stroke-width="2.5" opacity="0.9"/>
  <line x1="32" y1="60" x2="50" y2="60" stroke="#EC4899" stroke-width="2.5" opacity="0.9"/>
  <line x1="70" y1="60" x2="88" y2="60" stroke="#EC4899" stroke-width="2.5" opacity="0.9"/>
  
  <line x1="40.2" y1="40.2" x2="52.9" y2="52.9" stroke="#EC4899" stroke-width="2.5" opacity="0.9"/>
  <line x1="67.1" y1="67.1" x2="79.8" y2="79.8" stroke="#EC4899" stroke-width="2.5" opacity="0.9"/>
  <line x1="79.8" y1="40.2" x2="67.1" y2="52.9" stroke="#EC4899" stroke-width="2.5" opacity="0.9"/>
  <line x1="52.9" y1="67.1" x2="40.2" y2="79.8" stroke="#EC4899" stroke-width="2.5" opacity="0.9"/>
  
  <!-- Lotus petals at bottom -->
  <ellipse cx="45" cy="95" rx="8" ry="4" fill="#EC4899" opacity="0.5"/>
  <ellipse cx="60" cy="96" rx="10" ry="5" fill="#EC4899" opacity="0.6"/>
  <ellipse cx="75" cy="95" rx="8" ry="4" fill="#EC4899" opacity="0.5"/>
  
  <!-- Decorative dots on wheel rim -->
  <circle cx="60" cy="32" r="3" fill="#EC4899" opacity="0.8"/>
  <circle cx="60" cy="88" r="3" fill="#EC4899" opacity="0.8"/>
  <circle cx="32" cy="60" r="3" fill="#EC4899" opacity="0.8"/>
  <circle cx="88" cy="60" r="3" fill="#EC4899" opacity="0.8"/>
  
  <!-- Decorative border -->
  <circle cx="60" cy="60" r="56" stroke="#EC4899" stroke-width="2" fill="none" opacity="0.2"/>
</svg>


