<svg xmlns="http://www.w3.org/2000/svg" viewBox="0 0 120 120" fill="none">
  <!-- Background circle with gradient -->
  <defs>
    <linearGradient id="bgGrad" x1="0%" y1="0%" x2="100%" y2="100%">
      <stop offset="0%" stop-color="#8B5CF6" stop-opacity="0.15"/>
      <stop offset="100%" stop-color="#7C3AED" stop-opacity="0.05"/>
    </linearGradient>
    <radialGradient id="crossGrad" cx="50%" cy="50%">
      <stop offset="0%" stop-color="#A78BFA"/>
      <stop offset="100%" stop-color="#8B5CF6"/>
    </radialGradient>
  </defs>
  
  <!-- Soft background -->
  <circle cx="60" cy="60" r="56" fill="url(#bgGrad)"/>
  
  <!-- Decorative rays -->
  <g opacity="0.2">
    <line x1="60" y1="20" x2="60" y2="30" stroke="#8B5CF6" stroke-width="2" stroke-linecap="round"/>
    <line x1="88" y1="32" x2="82" y2="38" stroke="#8B5CF6" stroke-width="2" stroke-linecap="round"/>
    <line x1="100" y1="60" x2="90" y2="60" stroke="#8B5CF6" stroke-width="2" stroke-linecap="round"/>
    <line x1="88" y1="88" x2="82" y2="82" stroke="#8B5CF6" stroke-width="2" stroke-linecap="round"/>
    <line x1="32" y1="32" x2="38" y2="38" stroke="#8B5CF6" stroke-width="2" stroke-linecap="round"/>
    <line x1="20" y1="60" x2="30" y2="60" stroke="#8B5CF6" stroke-width="2" stroke-linecap="round"/>
    <line x1="32" y1="88" x2="38" y2="82" stroke="#8B5CF6" stroke-width="2" stroke-linecap="round"/>
  </g>
  
  <!-- Elegant cross with depth -->
  <g filter="drop-shadow(0 4px 8px rgba(139, 92, 246, 0.3))">
    <!-- Vertical beam -->
    <rect x="54" y="35" width="12" height="50" rx="2" fill="url(#crossGrad)"/>
    <!-- Horizontal beam -->
    <rect x="42" y="50" width="36" height="12" rx="2" fill="url(#crossGrad)"/>
    
    <!-- Inner highlights -->
    <rect x="56" y="37" width="2" height="46" rx="1" fill="#FFFFFF" opacity="0.4"/>
    <rect x="44" y="52" width="32" height="2" rx="1" fill="#FFFFFF" opacity="0.4"/>
  </g>
  
  <!-- Decorative circles at cross ends -->
  <circle cx="60" cy="35" r="3" fill="#A78BFA" opacity="0.8"/>
  <circle cx="42" cy="56" r="3" fill="#A78BFA" opacity="0.8"/>
  <circle cx="78" cy="56" r="3" fill="#A78BFA" opacity="0.8"/>
  <circle cx="60" cy="85" r="3" fill="#A78BFA" opacity="0.8"/>
  
  <!-- Outer decorative ring -->
  <circle cx="60" cy="60" r="54" stroke="#8B5CF6" stroke-width="1.5" fill="none" opacity="0.3" stroke-dasharray="4 6"/>
</svg>
